<svg width="156" height="43" viewBox="0 0 156 43" fill="none" xmlns="http://www.w3.org/2000/svg">
<path d="M13.4824 34H8.17383V13.0117H0.84375V8.63477H20.8301V13.0117H13.4824V34ZM38.9531 16.668L34.1367 34H29.127L22.4121 8.63477H27.9141L31.9043 27.0039H32.0449L36.791 8.63477H41.2734L46.0195 27.0039H46.1602L50.168 8.63477H55.6699L48.9375 34H43.9277L39.1113 16.668H38.9531ZM63.6152 34H58.5352V8.63477H62.9648L74.8125 25.1582H74.9531V8.63477H80.0332V34H75.6387L63.7734 17.3887H63.6152V34Z" fill="white"/>
<path d="M83.3203 26.7754H88.4355C88.6816 28.8672 90.8613 30.2383 93.6738 30.2383C96.5039 30.2383 98.4375 28.8848 98.4375 27.0215C98.4375 25.3691 97.2246 24.4551 94.166 23.7695L90.8613 23.0488C86.1855 22.0469 83.8828 19.6738 83.8828 15.9648C83.8828 11.2891 87.9258 8.19531 93.5859 8.19531C99.4922 8.19531 103.201 11.2363 103.289 15.8242H98.3145C98.1387 13.6797 96.2578 12.3789 93.6035 12.3789C90.9844 12.3789 89.2266 13.627 89.2266 15.5078C89.2266 17.0723 90.457 17.9512 93.375 18.6191L96.4512 19.2695C101.531 20.3594 103.746 22.5391 103.746 26.4062C103.746 31.3281 99.7559 34.4395 93.4629 34.4395C87.3633 34.4395 83.4785 31.5391 83.3203 26.7754ZM118.459 34.4395C110.936 34.4395 106.225 29.4648 106.225 21.3262C106.225 13.2578 110.936 8.19531 118.459 8.19531C125.965 8.19531 130.676 13.2578 130.676 21.3262C130.676 25.791 129.252 29.377 126.633 31.5391L129.85 36.3906H124.699L122.889 33.7363C121.535 34.2109 120.059 34.4395 118.459 34.4395ZM118.459 30.0449C119.109 30.0449 119.707 29.957 120.27 29.7988L117.492 25.6504H122.291L123.398 27.1621C124.594 25.791 125.262 23.7695 125.262 21.3262C125.262 16 122.607 12.5723 118.459 12.5723C114.293 12.5723 111.639 16 111.639 21.3262C111.639 26.6348 114.293 30.0449 118.459 30.0449ZM139.43 12.7832V20.8691H144C146.672 20.8691 148.236 19.3398 148.236 16.8262C148.236 14.3652 146.584 12.7832 143.947 12.7832H139.43ZM139.43 24.7188V34H134.121V8.63477H144.51C150.346 8.63477 153.686 11.7109 153.686 16.7207C153.686 19.9727 151.998 22.7852 149.08 23.9277L154.424 34H148.412L143.684 24.7188H139.43Z" fill="#35BAF8"/>
</svg>
