<svg width="24" height="24" viewBox="0 0 24 24" fill="none" xmlns="http://www.w3.org/2000/svg">
<path d="M17.9657 7.98479C17.9657 6.39652 17.3348 4.8733 16.2117 3.75023C15.0886 2.62715 13.5654 1.99622 11.9771 1.99622C10.3889 1.99622 8.86564 2.62715 7.74256 3.75023C6.61949 4.8733 5.98855 6.39652 5.98855 7.98479C5.98855 14.9715 2.99426 16.9676 2.99426 16.9676H20.96C20.96 16.9676 17.9657 14.9715 17.9657 7.98479Z" stroke="black" stroke-width="1.49714" stroke-linecap="round" stroke-linejoin="round"/>
<path d="M13.7039 20.96C13.5284 21.2625 13.2766 21.5136 12.9735 21.6882C12.6705 21.8627 12.3269 21.9546 11.9772 21.9546C11.6275 21.9546 11.2839 21.8627 10.9809 21.6882C10.6778 21.5136 10.426 21.2625 10.2505 20.96" stroke="black" stroke-width="1.49714" stroke-linecap="round" stroke-linejoin="round"/>
</svg>
