<svg width="25" height="24" viewBox="0 0 25 24" fill="none" xmlns="http://www.w3.org/2000/svg">
<g clip-path="url(#clip0_58_1493)">
<path d="M17.8761 20.9828V18.9866C17.8761 17.9278 17.4555 16.9123 16.7068 16.1636C15.9581 15.4149 14.9426 14.9943 13.8838 14.9943H5.899C4.84015 14.9943 3.82467 15.4149 3.07596 16.1636C2.32724 16.9123 1.90662 17.9278 1.90662 18.9866V20.9828" stroke="black" stroke-width="1.49714" stroke-linecap="round" stroke-linejoin="round"/>
<path d="M9.89143 11.0019C12.0964 11.0019 13.8838 9.2144 13.8838 7.00947C13.8838 4.80454 12.0964 3.01709 9.89143 3.01709C7.6865 3.01709 5.89905 4.80454 5.89905 7.00947C5.89905 9.2144 7.6865 11.0019 9.89143 11.0019Z" stroke="black" stroke-width="1.49714" stroke-linecap="round" stroke-linejoin="round"/>
<path d="M23.8648 20.9828V18.9867C23.8641 18.1021 23.5697 17.2428 23.0277 16.5436C22.4858 15.8445 21.727 15.3452 20.8705 15.124" stroke="black" stroke-width="1.49714" stroke-linecap="round" stroke-linejoin="round"/>
<path d="M16.8781 3.14685C17.7368 3.36673 18.498 3.86618 19.0416 4.56645C19.5851 5.26672 19.8802 6.12799 19.8802 7.01447C19.8802 7.90095 19.5851 8.76221 19.0416 9.46249C18.498 10.1628 17.7368 10.6622 16.8781 10.8821" stroke="black" stroke-width="1.49714" stroke-linecap="round" stroke-linejoin="round"/>
</g>
<defs>
<clipPath id="clip0_58_1493">
<rect width="23.9543" height="23.9543" fill="white" transform="translate(0.908569 0.0228271)"/>
</clipPath>
</defs>
</svg>
