<svg width="24" height="24" viewBox="0 0 24 24" fill="none" xmlns="http://www.w3.org/2000/svg">
<path d="M12.0262 13.3246C12.5371 13.3246 12.9513 12.8956 12.9513 12.3663C12.9513 11.837 12.5371 11.408 12.0262 11.408C11.5153 11.408 11.1011 11.837 11.1011 12.3663C11.1011 12.8956 11.5153 13.3246 12.0262 13.3246Z" stroke="white" stroke-width="2" stroke-linecap="round" stroke-linejoin="round"/>
<path d="M12.0262 6.61637C12.5371 6.61637 12.9513 6.18731 12.9513 5.65804C12.9513 5.12877 12.5371 4.69971 12.0262 4.69971C11.5153 4.69971 11.1011 5.12877 11.1011 5.65804C11.1011 6.18731 11.5153 6.61637 12.0262 6.61637Z" stroke="white" stroke-width="2" stroke-linecap="round" stroke-linejoin="round"/>
<path d="M12.0262 20.033C12.5371 20.033 12.9513 19.6039 12.9513 19.0747C12.9513 18.5454 12.5371 18.1163 12.0262 18.1163C11.5153 18.1163 11.1011 18.5454 11.1011 19.0747C11.1011 19.6039 11.5153 20.033 12.0262 20.033Z" stroke="white" stroke-width="2" stroke-linecap="round" stroke-linejoin="round"/>
</svg>
