<svg width="14" height="14" viewBox="0 0 14 14" fill="none" xmlns="http://www.w3.org/2000/svg">
<g clip-path="url(#clip0_63_1551)">
<path d="M11.79 5.61426C11.79 9.54426 6.73712 12.9128 6.73712 12.9128C6.73712 12.9128 1.68427 9.54426 1.68427 5.61426C1.68427 4.27416 2.21662 2.98894 3.16421 2.04135C4.11181 1.09375 5.39702 0.561401 6.73712 0.561401C8.07722 0.561401 9.36244 1.09375 10.31 2.04135C11.2576 2.98894 11.79 4.27416 11.79 5.61426Z" stroke="#ADB5BD" stroke-width="1.12286" stroke-linecap="round" stroke-linejoin="round"/>
<path d="M6.73714 7.29863C7.66735 7.29863 8.42143 6.54454 8.42143 5.61434C8.42143 4.68413 7.66735 3.93005 6.73714 3.93005C5.80694 3.93005 5.05286 4.68413 5.05286 5.61434C5.05286 6.54454 5.80694 7.29863 6.73714 7.29863Z" stroke="#ADB5BD" stroke-width="1.12286" stroke-linecap="round" stroke-linejoin="round"/>
</g>
<defs>
<clipPath id="clip0_63_1551">
<rect width="13.4743" height="13.4743" fill="white"/>
</clipPath>
</defs>
</svg>
